<svg xmlns="http://www.w3.org/2000/svg" id="canvas" viewBox="536.144 290.787 357.887 122.627"><path d="M 597.28,338.39 C 596.73 337.28, 595.76 336.12, 593.50 335.10 C 591.24 334.08, 589.55 333.35, 585.99 333.31 C 582.43 333.27, 579.98 333.37, 575.70 334.89 C 571.41 336.42, 568.97 337.80, 564.58 340.95 C 560.19 344.11, 557.70 346.39, 553.75 350.68 C 549.80 354.97, 547.61 357.71, 544.83 362.40 C 542.06 367.08, 540.84 369.77, 539.87 374.11 C 538.90 378.45, 538.87 380.71, 539.97 384.09 C 541.08 387.46, 542.48 389.09, 545.39 390.99 C 548.31 392.88, 550.59 393.32, 554.56 393.57 C 558.53 393.82, 560.94 393.46, 565.24 392.25 C 569.53 391.03, 571.88 389.96, 576.03 387.49 C 580.19 385.03, 582.38 383.35, 586.04 379.91 C 589.69 376.47, 591.48 374.30, 594.30 370.30 C 597.12 366.30, 598.34 363.80, 600.12 359.91 C 601.89 356.02, 602.87 353.84, 603.17 350.85 C 603.48 347.86, 602.70 346.21, 601.65 344.94 C 600.59 343.67, 599.25 343.46, 597.91 344.51 C 596.57 345.56, 595.24 347.19, 594.95 350.21 C 594.65 353.23, 595.33 355.68, 596.43 359.61 C 597.53 363.54, 598.41 365.99, 600.45 369.86 C 602.49 373.72, 603.81 375.81, 606.64 378.94 C 609.47 382.06, 611.18 383.43, 614.59 385.49 C 617.99 387.56, 619.96 388.32, 623.65 389.25 C 627.34 390.17, 629.36 390.43, 633.04 390.12 C 636.72 389.81, 638.66 389.29, 642.03 387.70 C 645.41 386.11, 647.10 385.05, 649.91 382.18 C 652.72 379.30, 654.01 377.42, 656.09 373.33 C 658.17 369.25, 659.06 366.75, 660.33 361.74 C 661.60 356.74, 662.03 353.85, 662.44 348.33 C 662.85 342.80, 662.82 339.64, 662.38 334.12 C 661.93 328.61, 661.41 325.71, 660.23 320.76 C 659.05 315.81, 658.14 313.44, 656.48 309.39 C 654.83 305.33, 653.94 303.38, 651.95 300.50 C 649.96 297.63, 648.80 296.28, 646.52 295.01 C 644.25 293.73, 642.74 293.50, 640.58 294.11 C 638.42 294.73, 637.00 295.56, 635.72 298.10 C 634.44 300.64, 634.26 302.63, 634.18 306.82 C 634.11 311.00, 634.44 313.78, 635.36 319.03 C 636.29 324.27, 637.03 327.53, 638.80 333.03 C 640.57 338.53, 641.73 341.53, 644.22 346.51 C 646.72 351.50, 648.27 353.88, 651.26 357.96 C 654.25 362.03, 655.91 363.85, 659.19 366.87 C 662.46 369.88, 664.26 371.12, 667.63 373.03 C 671.00 374.94, 672.75 375.60, 676.04 376.43 C 679.32 377.25, 680.99 377.44, 684.05 377.16 C 687.12 376.88, 688.76 376.33, 691.35 375.02 C 693.94 373.71, 695.13 372.68, 697.00 370.62 C 698.87 368.56, 699.65 367.20, 700.70 364.72 C 701.75 362.24, 702.14 360.77, 702.26 358.21 C 702.39 355.64, 702.17 354.19, 701.34 351.90 C 700.52 349.60, 699.79 348.46, 698.14 346.75 C 696.49 345.04, 695.38 344.31, 693.11 343.37 C 690.83 342.43, 689.40 342.16, 686.77 342.06 C 684.13 341.96, 682.57 342.19, 679.92 342.89 C 677.27 343.59, 675.81 344.20, 673.53 345.57 C 671.26 346.95, 669.98 347.95, 668.56 349.77 C 667.13 351.59, 666.78 352.93, 666.42 354.69 C 666.05 356.44, 666.29 357.38, 666.73 358.54 C 667.17 359.70, 667.89 360.26, 668.61 360.47 C 669.34 360.69, 669.99 360.11, 670.37 359.60 C 670.74 359.10, 670.32 358.65, 670.47 357.96 C 670.63 357.27, 670.66 357.06, 671.13 356.17 C 671.60 355.29, 671.73 354.56, 672.82 353.52 C 673.91 352.49, 674.84 351.90, 676.59 351.01 C 678.35 350.12, 679.55 349.62, 681.58 349.07 C 683.62 348.51, 684.83 348.30, 686.75 348.21 C 688.66 348.13, 689.65 348.20, 691.17 348.66 C 692.68 349.11, 693.33 349.48, 694.32 350.48 C 695.32 351.48, 695.70 352.18, 696.15 353.65 C 696.60 355.12, 696.72 356.07, 696.56 357.83 C 696.41 359.60, 696.13 360.66, 695.37 362.48 C 694.62 364.30, 694.10 365.38, 692.80 366.93 C 691.50 368.49, 690.74 369.25, 688.88 370.25 C 687.02 371.25, 685.85 371.63, 683.48 371.94 C 681.12 372.25, 679.83 372.33, 677.05 371.82 C 674.27 371.31, 672.65 370.93, 669.56 369.40 C 666.47 367.87, 664.72 366.86, 661.58 364.18 C 658.45 361.49, 656.79 359.81, 653.89 355.99 C 650.99 352.18, 649.45 349.89, 647.08 345.09 C 644.70 340.30, 643.59 337.36, 642.02 332.03 C 640.45 326.70, 639.85 323.46, 639.25 318.45 C 638.65 313.44, 638.79 310.70, 639.01 307.00 C 639.24 303.30, 639.85 301.89, 640.36 299.96 C 640.86 298.03, 640.81 297.61, 641.56 297.34 C 642.31 297.07, 642.75 297.46, 644.09 298.62 C 645.43 299.78, 646.47 300.67, 648.26 303.12 C 650.06 305.58, 651.31 307.20, 653.06 310.89 C 654.80 314.58, 655.75 316.87, 656.97 321.57 C 658.19 326.27, 658.72 329.09, 659.16 334.38 C 659.59 339.68, 659.60 342.77, 659.14 348.06 C 658.69 353.35, 658.19 356.14, 656.89 360.83 C 655.58 365.52, 654.62 367.84, 652.62 371.50 C 650.61 375.16, 649.37 376.72, 646.88 379.13 C 644.38 381.54, 642.97 382.28, 640.12 383.55 C 637.28 384.83, 635.73 385.25, 632.65 385.52 C 629.56 385.79, 627.88 385.65, 624.70 384.91 C 621.53 384.17, 619.77 383.58, 616.79 381.82 C 613.82 380.05, 612.27 378.90, 609.84 376.10 C 607.41 373.30, 606.20 371.37, 604.64 367.82 C 603.07 364.27, 602.63 361.87, 602.02 358.34 C 601.42 354.81, 601.94 352.72, 601.62 350.17 C 601.29 347.61, 600.87 346.49, 600.38 345.57 C 599.89 344.66, 599.65 344.70, 599.17 345.59 C 598.68 346.48, 598.53 347.48, 597.96 350.02 C 597.38 352.57, 597.64 354.70, 596.30 358.33 C 594.96 361.97, 593.81 364.42, 591.26 368.21 C 588.72 372.00, 586.99 374.07, 583.56 377.27 C 580.13 380.46, 578.00 382.00, 574.12 384.18 C 570.24 386.37, 568.00 387.20, 564.15 388.18 C 560.29 389.16, 558.12 389.27, 554.83 389.08 C 551.55 388.89, 549.91 388.49, 547.71 387.23 C 545.50 385.97, 544.66 385.27, 543.80 382.80 C 542.95 380.33, 542.63 378.62, 543.42 374.88 C 544.20 371.14, 545.17 368.49, 547.73 364.10 C 550.28 359.71, 552.40 356.97, 556.19 352.94 C 559.97 348.91, 562.48 346.70, 566.64 343.93 C 570.81 341.16, 573.18 340.10, 577.01 339.07 C 580.84 338.05, 582.80 338.61, 585.78 338.82 C 588.76 339.03, 589.81 339.77, 591.90 340.14 C 593.99 340.50, 595.14 341.00, 596.22 340.65 C 597.30 340.30, 597.82 339.50, 597.28 338.39" style="stroke: black; fill: black;"/><path d="M 766.18,344.77 C 765.39 343.89, 764.25 343.14, 761.95 342.79 C 759.64 342.44, 757.90 342.23, 754.66 343.01 C 751.43 343.79, 749.20 344.62, 745.77 346.70 C 742.33 348.78, 740.42 350.38, 737.48 353.40 C 734.55 356.42, 732.99 358.28, 731.11 361.82 C 729.22 365.35, 728.18 367.46, 728.06 371.06 C 727.93 374.67, 728.44 376.80, 730.47 379.84 C 732.50 382.88, 734.32 384.21, 738.20 386.26 C 742.09 388.32, 744.62 388.98, 749.90 390.09 C 755.18 391.20, 758.43 391.48, 764.59 391.82 C 770.75 392.17, 774.28 392.17, 780.69 391.83 C 787.11 391.49, 790.57 391.08, 796.65 390.12 C 802.73 389.17, 805.86 388.50, 811.10 387.06 C 816.34 385.62, 818.77 384.77, 822.86 382.92 C 826.94 381.07, 828.73 380.05, 831.52 377.80 C 834.31 375.54, 835.47 374.26, 836.81 371.65 C 838.15 369.05, 838.33 367.43, 838.22 364.76 C 838.10 362.10, 837.63 360.57, 836.23 358.32 C 834.83 356.06, 833.63 354.91, 831.23 353.49 C 828.82 352.06, 827.22 351.46, 824.20 351.19 C 821.19 350.92, 819.32 351.11, 816.16 352.13 C 812.99 353.15, 811.20 354.13, 808.38 356.28 C 805.56 358.43, 804.12 359.94, 802.06 362.87 C 800.00 365.80, 798.92 367.62, 798.08 370.94 C 797.25 374.25, 797.19 376.26, 797.89 379.43 C 798.58 382.59, 799.47 384.30, 801.55 386.77 C 803.64 389.24, 805.21 390.34, 808.31 391.78 C 811.42 393.23, 813.43 393.70, 817.08 394.00 C 820.74 394.31, 822.84 394.18, 826.60 393.30 C 830.35 392.41, 832.36 391.69, 835.85 389.57 C 839.34 387.45, 841.17 386.10, 844.04 382.69 C 846.92 379.29, 848.26 377.17, 850.22 372.54 C 852.18 367.91, 852.91 365.07, 853.85 359.54 C 854.79 354.01, 855.00 350.81, 854.92 344.89 C 854.83 338.98, 854.44 335.69, 853.40 329.98 C 852.36 324.27, 851.43 321.23, 849.71 316.34 C 847.98 311.45, 846.76 309.21, 844.79 305.54 C 842.81 301.86, 841.94 299.94, 839.83 297.98 C 837.72 296.01, 836.02 295.33, 834.25 295.71 C 832.49 296.08, 831.22 297.15, 831.00 299.85 C 830.79 302.55, 831.69 304.62, 833.17 309.21 C 834.66 313.80, 835.98 316.90, 838.42 322.81 C 840.87 328.71, 842.43 332.38, 845.41 338.74 C 848.38 345.10, 850.12 348.56, 853.32 354.59 C 856.52 360.62, 858.26 363.55, 861.42 368.90 C 864.58 374.25, 866.21 376.76, 869.12 381.35 C 872.04 385.94, 873.55 388.07, 875.98 391.85 C 878.42 395.62, 879.49 397.34, 881.32 400.23 C 883.16 403.13, 883.82 404.52, 885.17 406.32 C 886.51 408.13, 887.11 408.45, 888.06 409.27 C 889.00 410.08, 889.31 410.32, 889.89 410.40 C 890.47 410.48, 890.83 410.23, 890.97 409.66 C 891.12 409.10, 890.99 408.76, 890.61 407.57 C 890.23 406.39, 890.22 405.69, 889.06 403.73 C 887.91 401.78, 886.91 400.57, 884.85 397.80 C 882.80 395.04, 881.45 393.51, 878.80 389.90 C 876.14 386.30, 874.59 384.23, 871.56 379.76 C 868.54 375.28, 866.88 372.82, 863.69 367.54 C 860.50 362.27, 858.75 359.37, 855.60 353.38 C 852.45 347.39, 850.73 343.95, 847.92 337.59 C 845.11 331.24, 843.69 327.52, 841.55 321.59 C 839.42 315.67, 838.46 312.40, 837.23 307.99 C 836.00 303.57, 835.99 301.57, 835.40 299.51 C 834.82 297.44, 834.12 297.34, 834.31 297.65 C 834.50 297.97, 834.94 299.12, 836.36 301.09 C 837.79 303.05, 839.39 304.20, 841.44 307.48 C 843.49 310.76, 844.84 312.87, 846.63 317.48 C 848.42 322.09, 849.35 325.05, 850.39 330.54 C 851.43 336.03, 851.79 339.24, 851.84 344.93 C 851.89 350.62, 851.62 353.74, 850.64 358.97 C 849.66 364.21, 848.87 366.89, 846.95 371.11 C 845.04 375.34, 843.73 377.16, 841.07 380.10 C 838.41 383.04, 836.76 384.09, 833.66 385.80 C 830.57 387.51, 828.81 388.02, 825.59 388.64 C 822.37 389.26, 820.58 389.24, 817.58 388.89 C 814.59 388.55, 812.99 388.02, 810.61 386.89 C 808.23 385.76, 807.17 384.97, 805.68 383.25 C 804.19 381.53, 803.62 380.47, 803.14 378.28 C 802.67 376.09, 802.66 374.75, 803.32 372.30 C 803.98 369.84, 804.78 368.31, 806.46 366.00 C 808.13 363.69, 809.40 362.39, 811.69 360.75 C 813.99 359.10, 815.52 358.52, 817.93 357.79 C 820.34 357.06, 821.63 356.96, 823.74 357.09 C 825.84 357.22, 826.83 357.62, 828.45 358.45 C 830.08 359.28, 830.85 359.92, 831.86 361.25 C 832.86 362.57, 833.30 363.40, 833.46 365.07 C 833.62 366.73, 833.59 367.66, 832.66 369.56 C 831.72 371.47, 831.06 372.56, 828.80 374.60 C 826.54 376.64, 825.05 377.87, 821.34 379.78 C 817.63 381.69, 815.29 382.63, 810.26 384.14 C 805.23 385.65, 802.14 386.36, 796.20 387.33 C 790.26 388.30, 786.83 388.70, 780.55 388.99 C 774.27 389.27, 770.77 389.21, 764.80 388.75 C 758.82 388.28, 755.61 387.87, 750.68 386.67 C 745.74 385.47, 743.42 384.60, 740.11 382.75 C 736.80 380.90, 735.63 379.70, 734.13 377.41 C 732.63 375.12, 732.42 373.98, 732.62 371.30 C 732.82 368.62, 733.50 366.93, 735.13 364.02 C 736.77 361.10, 738.17 359.27, 740.81 356.73 C 743.45 354.18, 745.27 352.84, 748.33 351.29 C 751.38 349.75, 753.36 349.64, 756.09 349.01 C 758.81 348.37, 760.00 348.48, 761.95 348.12 C 763.91 347.76, 765.01 347.88, 765.85 347.21 C 766.70 346.54, 766.96 345.66, 766.18 344.77" style="stroke: black; fill: black;"/></svg>